<?xml version="1.0" encoding="UTF-8" standalone="no"?>
<!-- Created with Inkscape (http://www.inkscape.org/) -->

<svg
   xmlns:dc="http://purl.org/dc/elements/1.1/"
   xmlns:cc="http://creativecommons.org/ns#"
   xmlns:rdf="http://www.w3.org/1999/02/22-rdf-syntax-ns#"
   xmlns:svg="http://www.w3.org/2000/svg"
   xmlns="http://www.w3.org/2000/svg"
   xmlns:sodipodi="http://sodipodi.sourceforge.net/DTD/sodipodi-0.dtd"
   xmlns:inkscape="http://www.inkscape.org/namespaces/inkscape"
   width="512"
   height="512"
   viewBox="0 0 135.46666 135.46667"
   version="1.1"
   id="svg8"
   inkscape:version="0.92.1 r15371"
   sodipodi:docname="logo.svg"
   inkscape:export-filename="C:\Users\diou_\OneDrive\www\gravador-de-telas\assets\logo.png"
   inkscape:export-xdpi="96"
   inkscape:export-ydpi="96">
  <defs
     id="defs2" />
  <sodipodi:namedview
     id="base"
     pagecolor="#ffffff"
     bordercolor="#666666"
     borderopacity="1.0"
     inkscape:pageopacity="0.0"
     inkscape:pageshadow="2"
     inkscape:zoom="1.1523438"
     inkscape:cx="256"
     inkscape:cy="256"
     inkscape:document-units="mm"
     inkscape:current-layer="layer1"
     showgrid="false"
     units="px"
     inkscape:window-width="1366"
     inkscape:window-height="705"
     inkscape:window-x="-8"
     inkscape:window-y="-8"
     inkscape:window-maximized="1" />
  <metadata
     id="metadata5">
    <rdf:RDF>
      <cc:Work
         rdf:about="">
        <dc:format>image/svg+xml</dc:format>
        <dc:type
           rdf:resource="http://purl.org/dc/dcmitype/StillImage" />
        <dc:title></dc:title>
      </cc:Work>
    </rdf:RDF>
  </metadata>
  <g
     inkscape:label="Camada 1"
     inkscape:groupmode="layer"
     id="layer1"
     transform="translate(0,-161.53332)">
    <rect
       style="opacity:1;fill:#ffffff;fill-opacity:1;fill-rule:evenodd;stroke:none;stroke-width:3;stroke-linecap:butt;stroke-linejoin:round;stroke-miterlimit:4;stroke-dasharray:none;stroke-dashoffset:0;stroke-opacity:1;paint-order:markers stroke fill"
       id="rect4504"
       width="111.63409"
       height="64.335823"
       x="12.043434"
       y="197.60732" />
    <g
       aria-label=""
       style="font-style:normal;font-variant:normal;font-weight:normal;font-stretch:normal;font-size:45.86111069px;line-height:1.25;font-family:IcoFont;-inkscape-font-specification:'IcoFont, Normal';font-variant-ligatures:normal;font-variant-caps:normal;font-variant-numeric:normal;font-feature-settings:normal;text-align:start;letter-spacing:0px;word-spacing:0px;writing-mode:lr-tb;text-anchor:start;fill:#e84c3d;fill-opacity:1;stroke:none;stroke-width:0.26458332"
       id="text4514"
       transform="translate(48.017241,-82.929312)">
      <path
         d="m -3.2144632,312.17481 q 0,4.86128 1.8803055,9.17222 1.83444443,4.08164 5.1364444,7.20019 3.2102777,3.0727 7.3377773,4.67784 4.173361,1.651 8.576028,1.60514 4.356806,0.0459 8.484306,-1.55928 4.173361,-1.60514 7.383638,-4.63197 3.302,-3.11856 5.136445,-7.2002 1.926166,-4.31094 1.926166,-9.21808 0,-6.42056 -3.256138,-11.74045 -3.026834,-4.953 -8.209139,-7.88811 -5.182306,-2.93511 -11.052528,-3.02683 -4.54025,-0.0917 -8.759472,1.55928 -4.1733611,1.60514 -7.4753611,4.67783 -3.30199995,3.0727 -5.1364444,7.15433 -1.9720277,4.35681 -1.9720277,9.21809 z M 15.451009,301.71847 q 4.402666,2.65995 13.116277,8.0257 l 2.4765,1.51342 q 0.642056,0.41275 0.642056,1.23825 0,0.77963 -0.642056,1.19238 l -15.592777,9.53912 q -0.458611,0.27516 -0.963084,0.2293 -0.504472,-0.0917 -0.871361,-0.45861 -0.321027,-0.41275 -0.321027,-0.96308 v -19.12409 q 0,-0.55033 0.321027,-0.91722 0.366889,-0.41275 0.871361,-0.45861 0.504473,-0.0917 0.963084,0.18344 z"
         style="font-style:normal;font-variant:normal;font-weight:normal;font-stretch:normal;font-size:45.86111069px;font-family:IcoFont;-inkscape-font-specification:'IcoFont, Normal';font-variant-ligatures:normal;font-variant-caps:normal;font-variant-numeric:normal;font-feature-settings:normal;text-align:start;writing-mode:lr-tb;text-anchor:start;fill:#e84c3d;fill-opacity:1;stroke-width:0.26458332"
         id="path4520"
         inkscape:connector-curvature="0" />
    </g>
    <g
       aria-label=""
       style="font-style:normal;font-variant:normal;font-weight:normal;font-stretch:normal;font-size:127.14588928px;line-height:1.25;font-family:IcoFont;-inkscape-font-specification:'IcoFont, Normal';font-variant-ligatures:normal;font-variant-caps:normal;font-variant-numeric:normal;font-feature-settings:normal;text-align:start;letter-spacing:0px;word-spacing:0px;writing-mode:lr-tb;text-anchor:start;fill:#000000;fill-opacity:1;stroke:none;stroke-width:0.26458329"
       id="text4525">
      <path
         d="M 128.50907,188.57995 H 7.0847439 c -0.8476393,0 -1.5681326,0.29668 -2.1614801,0.89003 -0.5085835,0.50858 -0.7628753,1.18669 -0.7628753,2.03433 v 75.52466 c 0,0.84764 0.2542918,1.56813 0.7628753,2.16148 0.5933475,0.50858 1.3138408,0.76287 2.1614801,0.76287 H 128.50907 c 0.76287,0 1.3986,-0.25429 1.90719,-0.76287 0.59335,-0.59335 0.89002,-1.31384 0.89002,-2.16148 v -75.52466 c 0,-0.84764 -0.29667,-1.52575 -0.89002,-2.03433 -0.50859,-0.59335 -1.14432,-0.89003 -1.90719,-0.89003 z m -4.83155,73.36318 H 12.043434 V 197.60731 H 123.67752 Z"
         style="font-style:normal;font-variant:normal;font-weight:normal;font-stretch:normal;font-size:127.14588928px;font-family:IcoFont;-inkscape-font-specification:'IcoFont, Normal';font-variant-ligatures:normal;font-variant-caps:normal;font-variant-numeric:normal;font-feature-settings:normal;text-align:start;writing-mode:lr-tb;text-anchor:start;stroke-width:0.26458329"
         id="path4527"
         inkscape:connector-curvature="0"
         sodipodi:nodetypes="sscsscsscsscsccccc" />
    </g>
  </g>
</svg>
